<svg xmlns="http://www.w3.org/2000/svg" xmlns:xlink="http://www.w3.org/1999/xlink" version="1.1" x="0px" y="0px" viewBox="0 0 36 45" style="enable-background:new 0 0 36 36;" xml:space="preserve"><path d="M18,7.05C11.96,7.05,7.05,11.96,7.05,18S11.96,28.95,18,28.95S28.95,24.04,28.95,18S24.04,7.05,18,7.05z M14.63,23.89  c-1.39,0-2.53-1.13-2.53-2.53s1.13-2.53,2.53-2.53c1.39,0,2.53,1.13,2.53,2.53S16.02,23.89,14.63,23.89z M14.63,17.16  c-1.39,0-2.53-1.13-2.53-2.53c0-1.39,1.13-2.53,2.53-2.53c1.39,0,2.53,1.13,2.53,2.53C17.16,16.02,16.02,17.16,14.63,17.16z   M21.37,23.89c-1.39,0-2.53-1.13-2.53-2.53s1.13-2.53,2.53-2.53c1.39,0,2.53,1.13,2.53,2.53S22.76,23.89,21.37,23.89z M21.37,17.16  c-1.39,0-2.53-1.13-2.53-2.53c0-1.39,1.13-2.53,2.53-2.53c1.39,0,2.53,1.13,2.53,2.53C23.89,16.02,22.76,17.16,21.37,17.16z"/><path d="M18,2C9.18,2,2,9.18,2,18c0,8.82,7.18,16,16,16s16-7.18,16-16C34,9.18,26.82,2,18,2z M18,30.63  c-6.97,0-12.63-5.67-12.63-12.63S11.03,5.37,18,5.37S30.63,11.03,30.63,18S24.97,30.63,18,30.63z"/><text x="0" y="51" fill="#000000" font-size="5px" font-weight="bold" font-family="'Helvetica Neue', Helvetica, Arial-Unicode, Arial, Sans-serif">Created by newstudiodesign10</text><text x="0" y="56" fill="#000000" font-size="5px" font-weight="bold" font-family="'Helvetica Neue', Helvetica, Arial-Unicode, Arial, Sans-serif">from the Noun Project</text></svg>